 http://silvertorrent.org/
 
http://www.shotpix.com/images/08096634903738710469.png
 
http://piczend.com/img.php?image=3083_playing_for_keeps_g7as.jpeg
 
http://silvertorrent.org/index.php?page=torrent-details&id=a7617def62cb37032214aa9ab1f74f189d26a679

Source: Muzchina.na.rasshvat.2012.D.TS.1400mb...THX
Audio: LIGHT...THX 

Format                           : AVI
Format/Info                      : Audio Video Interleave
File size                        : 990 MiB
Duration                         : 1h 36mn
Overall bit rate                 : 1 434 Kbps
Writing application              : VirtualDubMod 1.5.10.2 (build 2540/release)
Writing library                  : VirtualDub build 33848/release

Video
ID                               : 0
Format                           : MPEG-4 Visual
Format profile                   : Advanced Simple@L5
Format settings, BVOP            : Yes
Format settings, QPel            : No
Format settings, GMC             : No warppoints
Format settings, Matrix          : Default (H.263)
Muxing mode                      : Packed bitstream
Codec ID                         : XVID
Codec ID/Hint                    : XviD
Duration                         : 1h 36mn
Bit rate                         : 1 296 Kbps
Width                            : 680 pixels
Height                           : 286 pixels
Display aspect ratio             : 2.35:1
Frame rate                       : 25.000 fps
Color space                      : YUV
Chroma subsampling               : 4:2:0
Bit depth                        : 8 bits
Scan type                        : Progressive
Bits/(Pixel*Frame)               : 0.267
Stream size                      : 895 MiB (90%)
Writing library                  : XviD 1.2.1 (UTC 2008-12-04)

Audio
ID                               : 1
Format                           : MPEG Audio
Format version                   : Version 1
Format profile                   : Layer 3
Mode                             : Joint stereo
Mode extension                   : MS Stereo
Codec ID                         : 55
Codec ID/Hint                    : MP3
Duration                         : 1h 36mn
Bit rate mode                    : Constant
Bit rate                         : 128 Kbps
Channel(s)                       : 2 channels
Sampling rate                    : 44.1 KHz
Stream size                      : 88.3 MiB (9%)
Alignment                        : Split accross interleaves
Interleave, duration             : 40 ms (1.00 video frame)
Interleave, preload duration     : 500 ms

WORKDONE:
Video source was good but just a bit dark in some areas and Saturation and RGB needed some adjusting. We adjusted the picture for best overall picture quality so dark sence werent so dark. We started off with adjusting the AR and resizing the picture to 2.35:1 ratio. We also used a denoiser, smoother, levels, contrast and brightness. 

Audio... was actually really good.. sound better then most Line audio I've heard. We clean it up a bit more here and there to our liking so I hope everyone enjoy this release. We did our best to give you a small file size with quality 

Looked and sound great on my 42" TV and in sync.

Screens Here : 
 
http://silvertorrent.org/index.php?page=torrent-details&id=a7617def62cb37032214aa9ab1f74f189d26a679
 
http://piczend.com/img.php?image=0618_1_bn39.png 
http://piczend.com/img.php?image=7423_2_e5c8.png 
http://piczend.com/img.php?image=5456_3_f2kf.png 
http://piczend.com/img.php?image=9836_4_jv5t.png 
http://piczend.com/img.php?image=7966_5_0bfk.png
 
http://silvertorrent.org/index.php?page=torrent-details&id=a7617def62cb37032214aa9ab1f74f189d26a679